<?xml version="1.0" encoding="UTF-8"?>
<svg version="1.1" xmlns="http://www.w3.org/2000/svg" width="139" height="129">
<path d="M0 0 C1.29997925 0.00303635 1.29997925 0.00303635 2.6262207 0.00613403 C3.51027588 0.00517731 4.39433105 0.00422058 5.30517578 0.00323486 C7.178142 0.00255302 9.05111056 0.0044076 10.92407227 0.00857544 C13.80140458 0.01392364 16.67858078 0.0086306 19.5559082 0.00222778 C21.37101272 0.00288856 23.18611713 0.00416972 25.0012207 0.00613403 C25.86787354 0.0041098 26.73452637 0.00208557 27.62744141 0 C33.69877061 0.02399644 33.69877061 0.02399644 34.8137207 1.13894653 C36.89070909 1.41616264 38.96845034 1.68856298 41.04907227 1.93704224 C49.37618324 2.96830395 57.17340546 4.56459185 65.0637207 7.45144653 C65.82410645 7.72295532 66.58449219 7.99446411 67.36791992 8.27420044 C72.70105374 10.3313841 77.77955691 13.01716694 81.8137207 17.13894653 C82.53344727 19.32766724 82.53344727 19.32766724 82.8137207 21.13894653 C83.4737207 21.13894653 84.1337207 21.13894653 84.8137207 21.13894653 C86.02195878 26.19919114 86.30952553 30.05144618 83.8762207 34.76394653 C75.50739119 47.97064736 59.43098839 54.6261957 45.8137207 61.13894653 C45.16918945 61.4481604 44.5246582 61.75737427 43.8605957 62.07595825 C33.25816703 67.13894653 33.25816703 67.13894653 30.8137207 67.13894653 C30.8137207 63.13894653 30.8137207 63.13894653 32.2121582 61.60379028 C32.86442383 61.09976685 33.51668945 60.59574341 34.1887207 60.07644653 C43.29220295 52.51975065 54.59354183 41.84289459 57.0637207 29.76394653 C57.12510739 26.05866299 57.12510739 26.05866299 54.8137207 23.32644653 C48.84554742 18.97465351 42.99241458 17.55774302 35.8137207 16.57644653 C34.96156982 16.4535022 34.10941895 16.33055786 33.23144531 16.20388794 C25.31984933 15.11051409 17.37878615 14.40069602 9.41723633 13.78518677 C8.49749023 13.71372437 7.57774414 13.64226196 6.63012695 13.56863403 C5.41498413 13.47944702 5.41498413 13.47944702 4.17529297 13.38845825 C1.67718729 13.12452111 -0.72590837 12.63970146 -3.1862793 12.13894653 C-5.71069673 11.91498398 -8.22018714 11.7237461 -10.7487793 11.57644653 C-11.44680664 11.53398804 -12.14483398 11.49152954 -12.86401367 11.44778442 C-18.97353938 11.10115951 -25.06758791 11.03465066 -31.1862793 11.13894653 C-30.63069336 11.96265747 -30.07510742 12.78636841 -29.50268555 13.63504028 C-26.96502005 17.44209723 -24.54231717 21.31800716 -22.1237793 25.20144653 C-21.69000977 25.89560669 -21.25624023 26.58976685 -20.80932617 27.30496216 C-19.97291488 28.64551177 -19.13865962 29.98740975 -18.30688477 31.33084106 C-17.33750319 32.89494562 -16.35847487 34.45306372 -15.37768555 36.01004028 C-14.1862793 38.13894653 -14.1862793 38.13894653 -14.1862793 40.13894653 C-13.5262793 40.13894653 -12.8662793 40.13894653 -12.1862793 40.13894653 C-11.34779125 41.59432221 -10.51563995 43.05335027 -9.6862793 44.51394653 C-9.2222168 45.32605591 -8.7581543 46.13816528 -8.2800293 46.97488403 C-7.1862793 49.13894653 -7.1862793 49.13894653 -7.1862793 51.13894653 C-6.5262793 51.13894653 -5.8662793 51.13894653 -5.1862793 51.13894653 C-3.7409668 53.34207153 -3.7409668 53.34207153 -2.0612793 56.38894653 C0.39941545 60.73464554 2.95174132 64.94072649 5.7512207 69.07644653 C9.31365269 74.34415119 12.67568575 79.71109522 15.98168945 85.14285278 C17.56119629 87.72596951 19.17819088 90.27870571 20.8137207 92.82644653 C22.8137207 96.13894653 22.8137207 96.13894653 22.8137207 98.13894653 C23.4737207 98.13894653 24.1337207 98.13894653 24.8137207 98.13894653 C25.99222384 99.94677628 27.08133476 101.81323801 28.1262207 103.70144653 C30.14663339 107.28346987 32.14040558 110.73651766 34.6262207 114.01394653 C36.74812154 117.04523345 37.86038967 119.58562178 38.8137207 123.13894653 C39.4737207 123.13894653 40.1337207 123.13894653 40.8137207 123.13894653 C41.4737207 125.11894653 42.1337207 127.09894653 42.8137207 129.13894653 C28.59970304 130.1080841 15.57889406 126.15361468 2.8137207 120.13894653 C2.20560547 119.85535278 1.59749023 119.57175903 0.97094727 119.27957153 C-18.36713174 110.19288832 -40.4338688 97.89342489 -49.1862793 77.13894653 C-49.1862793 76.14894653 -49.1862793 75.15894653 -49.1862793 74.13894653 C-49.8462793 74.13894653 -50.5062793 74.13894653 -51.1862793 74.13894653 C-53.66865605 67.40389249 -53.51800031 60.81706674 -53.4987793 53.70144653 C-53.52294922 51.9177063 -53.52294922 51.9177063 -53.54760742 50.09793091 C-53.55136594 43.32883397 -53.07532758 38.27148652 -50.1862793 32.13894653 C-49.65389648 30.98652466 -49.12151367 29.83410278 -48.57299805 28.64675903 C-46.80574797 25.12850946 -45.00010131 21.63339412 -43.1862793 18.13894653 C-42.72350586 17.15410278 -42.26073242 16.16925903 -41.78393555 15.15457153 C-39.41338576 10.50966819 -37.39633325 7.71631079 -32.4987793 5.70144653 C-25.52504152 3.65091615 -18.24004874 2.75090811 -11.0534668 1.75222778 C-0.00449928 0.00001778 -0.00449928 0.00001778 0 0 Z " fill="#F5F5F4" transform="translate(53.186279296875,-0.138946533203125)"/>
<path d="M0 0 C-0.268125 0.78375 -0.53625 1.5675 -0.8125 2.375 C-1.204375 3.57125 -1.59625 4.7675 -2 6 C-2.24105469 6.71542969 -2.48210937 7.43085937 -2.73046875 8.16796875 C-6.61741541 20.26288398 -7.2872996 32.17916029 -7.125 44.8125 C-7.11493373 46.19856112 -7.10581442 47.58462946 -7.09765625 48.97070312 C-7.07435806 52.31399273 -7.04164862 55.65689731 -7 59 C-20.28960968 53.78166142 -34.45380845 48.08589987 -44 37 C-45.51224195 32.46327416 -46.05363099 28.41029744 -44.1171875 23.98046875 C-37.17048447 13.43562313 -13.01242573 0 0 0 Z " fill="#F5F5F4" transform="translate(132,60)"/>
<path d="" fill="#F5F5F4" transform="translate(0,0)"/>
</svg>
